<?xml version="1.0" standalone="no"?>
<!DOCTYPE svg PUBLIC "-//W3C//DTD SVG 20010904//EN"
 "http://www.w3.org/TR/2001/REC-SVG-20010904/DTD/svg10.dtd">
<svg version="1.0" xmlns="http://www.w3.org/2000/svg"
 width="258.000000pt" height="195.000000pt" viewBox="0 0 258.000000 195.000000"
 preserveAspectRatio="xMidYMid meet">

<g transform="translate(0.000000,195.000000) scale(0.100000,-0.100000)"
fill="#000000" stroke="none">
<path d="M890 1943 c-116 -20 -382 -103 -461 -144 -43 -22 -113 -127 -202
-305 -154 -309 -218 -588 -218 -959 l0 -200 28 -23 c99 -81 350 -213 526 -277
l99 -35 18 22 c22 27 107 166 115 190 5 11 -1 18 -17 23 -38 12 -188 88 -188
96 0 4 11 14 25 23 23 15 29 14 109 -18 198 -80 387 -111 626 -103 206 7 350
38 533 114 56 23 58 23 82 6 13 -10 25 -21 25 -24 0 -6 -153 -83 -188 -94 -16
-5 -22 -12 -17 -23 7 -21 90 -159 113 -190 l18 -23 99 36 c178 64 429 196 528
277 l28 23 0 200 c0 368 -57 623 -210 940 -87 182 -165 301 -210 324 -82 42
-338 121 -468 145 -32 5 -33 4 -65 -64 l-32 -69 -61 7 c-78 9 -392 9 -471 0
l-60 -7 -34 69 c-19 39 -36 69 -39 69 -3 -1 -17 -4 -31 -6z m70 -833 c49 -25
104 -89 118 -139 16 -53 15 -140 -3 -190 -43 -123 -180 -193 -288 -148 -81 35
-145 121 -154 210 -21 206 159 353 327 267z m870 -8 c198 -120 133 -456 -93
-479 -133 -14 -248 100 -248 247 -1 89 18 138 76 196 79 79 172 92 265 36z"/>
</g>
</svg>
